Coordinates
version=1
nRows=8
nColumns=63
inDegrees=yes

Units are S.I. units (second, meters, Newtons, ...)
If the header above contains a line with 'inDegrees', this indicates whether rotational values are in degrees (yes) or radians (no).

endheader
time	pelvis_tilt	pelvis_list	pelvis_rotation	pelvis_tx	pelvis_ty	pelvis_tz	hip_flexion_r	hip_adduction_r	hip_rotation_r	knee_angle_r	knee_angle_r_beta	ankle_angle_r	subtalar_angle_r	mtp_angle_r	hip_flexion_l	hip_adduction_l	hip_rotation_l	knee_angle_l	knee_angle_l_beta	ankle_angle_l	subtalar_angle_l	mtp_angle_l	L5_S1_Flex_Ext	L5_S1_Lat_Bending	L5_S1_axial_rotation	L4_L5_Flex_Ext	L4_L5_Lat_Bending	L4_L5_axial_rotation	L3_L4_Flex_Ext	L3_L4_Lat_Bending	L3_L4_axial_rotation	L2_L3_Flex_Ext	L2_L3_Lat_Bending	L2_L3_axial_rotation	L1_L2_Flex_Ext	L1_L2_Lat_Bending	L1_L2_axial_rotation	L1_T12_Flex_Ext	L1_T12_Lat_Bending	L1_T12_axial_rotation	Abs_r3	Abs_r2	Abs_r1	Abs_t1	Abs_t2	neck_flexion	neck_bending	neck_rotation	arm_flex_r	arm_add_r	arm_rot_r	elbow_flex_r	pro_sup_r	wrist_flex_r	wrist_dev_r	arm_flex_l	arm_add_l	arm_rot_l	elbow_flex_l	pro_sup_l	wrist_flex_l	wrist_dev_l
     14.63333333	      6.26138822	      2.48855170	    190.68717911	     -0.28533139	      0.86296052	      0.63110388	     31.92909191	     -3.57586834	    -26.30615408	     15.92378287	      0.27792244	      9.50442485	      5.16107383	      0.00000000	     -2.18926640	     -3.41911439	     -0.05283294	     36.46709458	      0.63647087	     22.85274897	     -5.02587778	      0.00000000	      0.00233942	      0.21539453	     -2.65749427	      0.00434454	      0.28647473	     -2.82358766	      0.00384343	      0.52371026	     -2.82358766	      0.00267372	      0.52371026	     -2.32530748	      0.00217239	      0.43923253	     -2.15921409	      0.00133674	      0.33364613	     -1.99312070	      0.01671024	      2.43658601	    -14.78018586	      0.00000000	      0.00000000	      0.00000000	      0.00000000	      0.00000000	    -22.04205838	     -9.32392060	     -3.42281905	     31.08199662	     46.22462490	      0.00000000	      5.00000014	      8.14792587	    -17.51303233	     17.68080075	     39.35819018	     53.73465021	      0.00000000	      5.00000014
     14.66666667	      5.99802999	      2.93391136	    189.06711420	     -0.32766558	      0.86373170	      0.62845188	     30.26871489	     -2.08674591	    -27.19962311	     17.84829597	      0.31151153	     10.74460942	      6.23600261	      0.00000000	      0.17101653	     -4.12727857	      0.57403527	     45.07896296	      0.78677633	     15.33671810	    -10.54161174	      0.00000000	      0.00038061	      0.30723411	     -2.37688513	      0.00070684	      0.40862137	     -2.52544045	      0.00062531	      0.74700901	     -2.52544045	      0.00043500	      0.74700901	     -2.07977449	      0.00035344	      0.62651180	     -1.93121917	      0.00021748	      0.47590564	     -1.78266385	      0.00271869	      3.47549370	    -13.21952203	      0.00000000	      0.00000000	      0.00000000	      0.00000000	      0.00000000	    -21.28141545	     -9.52856466	     -3.96970234	     30.98214780	     45.77854416	      0.00000000	      5.00000014	      5.73581922	    -16.22783413	     15.37544571	     39.08021342	     53.33048666	      0.00000000	      5.00000014
     14.70000000	      5.69142335	      3.29009119	    187.10693086	     -0.36997426	      0.86582101	      0.62557962	     28.20244584	     -0.62785373	    -27.49938131	     19.72215881	      0.34421661	     12.10438063	      7.14919423	      0.00000000	      3.38992084	     -5.07656946	      0.13226947	     53.57369944	      0.93503745	      7.21724983	    -13.76740890	      0.00000000	     -0.00080228	      0.37936428	     -1.97022041	     -0.00148991	      0.50455449	     -2.09335918	     -0.00131806	      0.92238630	     -2.09335918	     -0.00091692	      0.92238630	     -1.72394286	     -0.00074499	      0.77359963	     -1.60080408	     -0.00045842	      0.58763526	     -1.47766531	     -0.00573059	      4.29144457	    -10.95777484	      0.00000000	      0.00000000	      0.00000000	      0.00000000	      0.00000000	    -20.15029645	     -9.65576193	     -4.47282375	     30.73972675	     45.33475072	      0.00000000	      5.00000014	      3.15787409	    -14.79659262	     12.94897801	     38.49187203	     52.87058215	      0.00000000	      5.00000014
     14.73333333	      5.30524019	      3.40546772	    184.82265419	     -0.41170546	      0.86900691	      0.62267849	     25.64573534	      0.70656480	    -26.67722256	     21.10037755	      0.36827106	     13.50284998	      7.73875378	      0.00000000	      7.14052511	     -5.79391428	     -0.47235032	     61.12018849	      1.06674853	      0.50648701	    -15.75178843	      0.00000000	     -0.00207737	      0.41001788	     -1.43247871	     -0.00385789	      0.54532378	     -1.52200863	     -0.00341292	      0.99691747	     -1.52200863	     -0.00237423	      0.99691747	     -1.25341887	     -0.00192905	      0.83610846	     -1.16388895	     -0.00118701	      0.63511770	     -1.07435903	     -0.01483848	      4.63820426	     -7.96701684	      0.00000000	      0.00000000	      0.00000000	      0.00000000	      0.00000000	    -18.61915695	     -9.66484300	     -4.70231619	     30.29406204	     45.15831910	      0.00000000	      5.00000014	      0.79045246	    -13.68429268	     11.82198738	     37.60448833	     52.63514655	      0.00000000	      5.00000014
     14.76666667	      4.87015723	      3.16575536	    182.64729824	     -0.45228319	      0.87284927	      0.62034399	     22.66138667	      1.52030078	    -25.09855054	     21.88303949	      0.38193109	     15.02817928	      8.49527724	      0.00000000	     11.46602833	     -5.92147331	     -0.62540020	     67.49297413	      1.17797462	     -3.13733614	    -17.07268079	      0.00000000	     -0.00211928	      0.37999315	     -0.86741603	     -0.00393572	      0.50539088	     -0.92162953	     -0.00348177	      0.92391534	     -0.92162953	     -0.00242213	      0.92391534	     -0.75898903	     -0.00196796	      0.77488202	     -0.70477553	     -0.00121096	      0.58860938	     -0.65056202	     -0.01513781	      4.29855847	     -4.82430775	      0.00000000	      0.00000000	      0.00000000	      0.00000000	      0.00000000	    -16.50994937	     -9.48447432	     -4.56403478	     29.37415383	     45.03436302	      0.00000000	      5.00000014	     -1.68997093	    -12.71731325	     10.28995770	     36.95197877	     52.29842895	      0.00000000	      5.00000014
     14.80000000	      4.42016696	      2.73540291	    180.84546710	     -0.49125843	      0.87696741	      0.61920653	     19.38472330	      1.87598844	    -22.95820574	     21.98451295	      0.38370214	     16.61167498	      9.24640255	      0.00000000	     16.41368160	     -5.67982087	     -0.44547193	     72.45573090	      1.26459107	     -3.15494720	    -17.86446841	      0.00000000	     -0.00223969	      0.31736592	     -0.35201255	     -0.00415933	      0.42209667	     -0.37401333	     -0.00367959	      0.77164349	     -0.37401333	     -0.00255974	      0.77164349	     -0.30801098	     -0.00207978	      0.64717258	     -0.28601019	     -0.00127976	      0.49159981	     -0.26400941	     -0.01599788	      3.59010674	     -1.95778818	      0.00000000	      0.00000000	      0.00000000	      0.00000000	      0.00000000	    -13.84775527	     -9.74126325	     -2.42475357	     28.34586220	     45.25641066	      0.00000000	      5.00000014	     -4.02210643	    -12.21634543	      9.94052495	     36.19691597	     52.05824922	      0.00000000	      5.00000014
     14.83333333	      4.04264286	      2.13969177	    179.44486076	     -0.52830009	      0.88106125	      0.61919233	     16.03110703	      1.76434432	    -20.79354676	     21.47071188	      0.37473461	     18.17843769	     10.25269313	      0.00000000	     21.70204873	     -5.28481419	     -0.29812112	     75.18164532	      1.31216725	     -0.23524494	    -18.42756881	      0.00000000	     -0.00154614	      0.23173730	      0.08160963	     -0.00287134	      0.30821061	      0.08671024	     -0.00254016	      0.56344608	      0.08671024	     -0.00176708	      0.56344608	      0.07140843	     -0.00143575	      0.47255871	      0.06630783	     -0.00088347	      0.35896108	      0.06120723	     -0.01104393	      2.62145873	      0.45388831	      0.00000000	      0.00000000	      0.00000000	      0.00000000	      0.00000000	    -10.68338943	    -10.56624008	      1.96600477	     27.51920762	     45.99458862	      0.00000000	      5.00000014	     -6.00745386	    -12.44313129	     11.97824206	     34.85540063	     52.20289097	      0.00000000	      5.00000014
     14.86666667	      3.89280849	      1.54581505	    178.42994003	     -0.56292182	      0.88470167	      0.61996351	     12.94009828	      1.42522624	    -18.96444433	     20.53960999	      0.35848382	     19.51438148	     11.16208839	      0.00000000	     26.94907068	     -5.13296717	     -0.44347130	     74.82561880	      1.30595341	      4.20962292	    -18.70410655	      0.00000000	     -0.00018743	      0.14723937	      0.40666849	     -0.00034808	      0.19582836	      0.43208527	     -0.00030793	      0.35799780	      0.43208527	     -0.00021422	      0.35799780	      0.35583493	     -0.00017405	      0.30025052	      0.33041815	     -0.00010710	      0.22807378	      0.30500137	     -0.00133882	      1.66560118	      2.26176813	      0.00000000	      0.00000000	      0.00000000	      0.00000000	      0.00000000	     -7.05048447	    -11.95614610	      8.22713716	     27.17428961	     47.06507976	      0.00000000	      5.00000014	     -7.76619473	    -13.04755026	     15.42940700	     32.97844383	     52.56388626	      0.00000000	      5.00000014
